<svg xmlns="http://www.w3.org/2000/svg" viewBox="0 0 48 48">
  <rect width="48" height="48" rx="8" fill="#1f3a2d"/>
  <path d="M24 13c-2.8-2-6.9-3-11-3v22c4.1 0 8.2 1 11 3 2.8-2 6.9-3 11-3V10c-4.1 0-8.2 1-11 3z" fill="#f0e6d6"/>
  <path d="M24 13v22" stroke="#6f4823" stroke-width="1.6" stroke-linecap="round"/>
  <path d="M15 15c2.7 0 5.6.7 7.5 1.9M15 21c2.7 0 5.6.7 7.5 1.9M15 27c2.7 0 5.6.7 7.5 1.9" stroke="#6f4823" stroke-width="1.4" stroke-linecap="round"/>
  <path d="M33 15c-2.7 0-5.6.7-7.5 1.9M33 21c-2.7 0-5.6.7-7.5 1.9M33 27c-2.7 0-5.6.7-7.5 1.9" stroke="#6f4823" stroke-width="1.4" stroke-linecap="round"/>
</svg>
